{
	"asset":{
		"generator":"Khronos glTF Blender I/O v3.6.27",
		"version":"2.0"
	},
	"extensionsUsed":[
		"KHR_materials_specular",
		"KHR_materials_ior"
	],
	"scene":0,
	"scenes":[
		{
			"extras":{
				"sun_pos_properties":{
					"show_surface":0,
					"show_analemmas":0,
					"show_north":0,
					"latitude":0.0,
					"day_of_year":220,
					"sun_object":{},
					"object_collection":{}
				},
				"skinify":{
					"connect_mesh":0,
					"connect_parents":0,
					"generate_all":0,
					"thickness":0.800000011920929,
					"finger_thickness":0.25,
					"apply_mod":1,
					"parent_armature":1,
					"sub_level":1
				},
				"matlayer_layer_stack":{
					"selected_layer_index":0
				},
				"matlayer_export_templates":[
					{
						"name":"PBR Metallic Roughness"
					},
					{
						"name":"PBR Specular Glossiness"
					},
					{
						"name":"Unity URP Metallic"
					},
					{
						"name":"Unity URP Specular"
					},
					{
						"name":"Unreal Engine 4 (Channel Packed)"
					},
					{
						"name":"Cry Engine"
					},
					{
						"name":"Painted Model (Diffuse)"
					},
					{
						"name":"Unlit Painted Model (Diffuse)"
					},
					{
						"name":"Mesh Maps"
					}
				],
				"ypui":{
					"expand_channels":0,
					"expand_mask_channels":0,
					"show_bake_targets":0,
					"show_channels":1,
					"show_layers":1,
					"show_materials":0,
					"show_object":0,
					"show_stats":0,
					"show_support":0,
					"tree_name":""
				},
				"global_store":{},
				"recast_navmesh":{},
				"wiggle":{
					"is_rendering":0
				},
				"jiggle_tree":{},
				"texToolsSettings":{},
				"matlayer_mask_stack":{},
				"b_settings":1,
				"s_aframe_version":"1.7.1",
				"b_renderer":1,
				"b_aa":1,
				"b_colorManagement":1,
				"b_player":0,
				"b_interactive":1,
				"b_export":1,
				"export_path":"D:\\xampp\\htdocs\\A-Frame\\Proyects_JM\\Realidad_Aumentada\\SanAntonio_ElBosco_RA\\",
				"s_project_name":"SanAntonio_orando_RA",
				"s_output":"exporting..."
			},
			"name":"Scene",
			"nodes":[
				0
			]
		}
	],
	"nodes":[
		{
			"extras":{
				"bluik_object_selector":{}
			},
			"mesh":0,
			"name":"Retablo_Alejo_Fernandez_limpieza_digital_low"
		}
	],
	"materials":[
		{
			"doubleSided":true,
			"emissiveFactor":[
				1,
				1,
				1
			],
			"emissiveTexture":{
				"index":0
			},
			"extensions":{
				"KHR_materials_specular":{
					"specularColorFactor":[
						0,
						0,
						0
					]
				},
				"KHR_materials_ior":{
					"ior":1.4500000476837158
				}
			},
			"extras":{
				"yp":{}
			},
			"name":"Retablo_Alejo_Fernandez_limpieza_digital_low",
			"pbrMetallicRoughness":{
				"baseColorFactor":[
					0,
					0,
					0,
					1
				],
				"metallicFactor":0
			}
		}
	],
	"meshes":[
		{
			"name":"Retablo_Alejo_Fernandez_limpieza_digital_low",
			"primitives":[
				{
					"attributes":{
						"POSITION":0,
						"NORMAL":1,
						"TEXCOORD_0":2,
						"TANGENT":3
					},
					"indices":4,
					"material":0
				}
			]
		}
	],
	"textures":[
		{
			"sampler":0,
			"source":0
		}
	],
	"images":[
		{
			"bufferView":5,
			"mimeType":"image/png",
			"name":"Retablo_Alejo_Fernandez_limpieza_digital_low"
		}
	],
	"accessors":[
		{
			"bufferView":0,
			"componentType":5126,
			"count":4,
			"max":[
				0.34259259700775146,
				0.5,
				0
			],
			"min":[
				-0.34259259700775146,
				-0.5,
				0
			],
			"type":"VEC3"
		},
		{
			"bufferView":1,
			"componentType":5126,
			"count":4,
			"type":"VEC3"
		},
		{
			"bufferView":2,
			"componentType":5126,
			"count":4,
			"type":"VEC2"
		},
		{
			"bufferView":3,
			"componentType":5126,
			"count":4,
			"type":"VEC4"
		},
		{
			"bufferView":4,
			"componentType":5123,
			"count":6,
			"type":"SCALAR"
		}
	],
	"bufferViews":[
		{
			"buffer":0,
			"byteLength":48,
			"byteOffset":0,
			"target":34962
		},
		{
			"buffer":0,
			"byteLength":48,
			"byteOffset":48,
			"target":34962
		},
		{
			"buffer":0,
			"byteLength":32,
			"byteOffset":96,
			"target":34962
		},
		{
			"buffer":0,
			"byteLength":64,
			"byteOffset":128,
			"target":34962
		},
		{
			"buffer":0,
			"byteLength":12,
			"byteOffset":192,
			"target":34963
		},
		{
			"buffer":0,
			"byteLength":1280906,
			"byteOffset":204
		}
	],
	"samplers":[
		{
			"magFilter":9729,
			"minFilter":9987,
			"wrapS":33071,
			"wrapT":33071
		}
	],
	"buffers":[
		{
			"byteLength":1281112,
			"uri":"data:application/octet-stream;base64,"
		}
	]
}
